# xmcd
#
# Track frame offsets:
#	150
#	22412
#	41292
#	58755
#	81122
#	98940
#	116335
#	134467
#	154145
#	178650
#	199442
#	216687
#	235412
#
# Disc length: 3415 seconds
#
# Revision: 1
# Processed by: cddbd v1.5.1PL0 Copyright (c) Steve Scherf et al.
# Submitted via: CDex 1.50Beta5
#
DISCID=c30d550d
DTITLE=金田たつえ - ツイン・パック/金沢情話 Disc 1
DYEAR=1996
DGENRE=World
TTITLE0=金沢情話
TTITLE1=花街の母
TTITLE2=人妻
TTITLE3=夕照の女
TTITLE4=おまえさん
TTITLE5=夢螢
TTITLE6=あかね雲
TTITLE7=無法松の一生
TTITLE8=風の追分みなと町
TTITLE9=博多恋ごよみ
TTITLE10=夢花火
TTITLE11=しのび恋
TTITLE12=黒髪ざんげ
EXTD=
EXTT0=
EXTT1=
EXTT2=
EXTT3=
EXTT4=
EXTT5=
EXTT6=
EXTT7=
EXTT8=
EXTT9=
EXTT10=
EXTT11=
EXTT12=
PLAYORDER=
